# Blender 3.5.1
# www.blender.org
mtllib Tree.mtl
o Tree
v 0.000000 -0.027504 -0.380573
v 0.000000 0.733641 -0.380573
v 0.269105 -0.027504 -0.269105
v 0.269105 0.733641 -0.269105
v 0.380573 -0.027504 0.000000
v 0.380573 0.733641 0.000000
v 0.269105 -0.027504 0.269105
v 0.269105 0.733641 0.269105
v 0.000000 -0.027504 0.380573
v 0.000000 0.733641 0.380573
v -0.269105 -0.027504 0.269105
v -0.269105 0.733641 0.269105
v -0.380573 -0.027504 0.000000
v -0.380573 0.733641 0.000000
v -0.269105 -0.027504 -0.269105
v -0.269105 0.733641 -0.269105
v -0.029381 0.276389 -1.488137
v 0.000000 1.496414 -0.204564
v 1.064197 0.333237 -1.055938
v 0.132621 1.496414 -0.149630
v 1.426616 0.285389 -0.002759
v 0.187555 1.496414 -0.017009
v 0.132621 1.496414 0.115613
v 0.084725 0.363996 1.629524
v 0.000000 1.496414 0.170547
v -1.054095 0.319566 1.156926
v -0.132621 1.496414 0.115613
v -1.537305 0.295642 0.107419
v -0.187555 1.496414 -0.017009
v -1.111941 0.207011 -1.015539
v -0.132621 1.496414 -0.149630
v 0.667212 0.333237 -1.212832
v 0.322432 0.678198 -0.971125
v 0.233971 0.333237 -1.384056
v 0.328820 0.333237 -0.966479
v -1.160077 0.483161 0.603761
v -1.209670 0.333237 0.926571
v -1.324765 0.333237 0.644693
v -1.158417 0.333237 0.602268
v 0.901934 0.461151 0.927127
v 0.922358 0.412011 1.004232
v 1.031516 0.333237 0.944605
v 0.926489 0.396444 1.019973
v 0.945063 0.333237 1.090584
v 0.900641 0.333237 0.925727
v 0.865524 0.742683 0.981096
v 0.106455 1.798837 0.112367
v -0.144391 0.759771 1.303674
v -0.016207 1.798837 0.149749
v -0.992165 0.718759 0.782901
v -0.129375 1.798837 0.089447
v -0.166757 1.798837 -0.033215
v -0.995362 0.759771 -1.102753
v -0.106455 1.798837 -0.146384
v 0.103229 0.765056 -1.460001
v 0.016207 1.798837 -0.183766
v 0.994520 0.672021 -0.979283
v 0.129375 1.798837 -0.123464
v 1.333774 0.759771 0.040645
v 0.166757 1.798837 -0.000802
v 0.218501 0.759771 1.186574
v 0.319137 1.067925 0.824149
v 0.614535 0.759771 1.058778
v 0.312094 0.759771 0.824570
v 0.447873 0.893698 -1.103666
v 0.298858 0.759771 -1.354489
v 0.538242 0.759771 -1.225377
v 0.447576 0.759771 -1.101694
v -1.158037 0.874037 -0.156339
v -1.215891 0.830140 -0.197933
v -1.257343 0.759771 -0.094845
v -1.227674 0.816234 -0.206447
v -1.280565 0.759771 -0.244612
v -1.156351 0.759771 -0.156108
v -0.511416 1.253672 1.007117
v -0.067803 2.144096 0.104784
v -1.145651 1.209239 0.311525
v -0.140077 2.144096 0.018677
v -0.985934 1.269777 -0.551148
v -0.130297 2.144096 -0.093316
v -0.044190 2.144096 -0.165590
v 0.534003 1.233163 -1.201241
v 0.067803 2.144096 -0.155809
v 1.199417 1.212653 -0.437753
v 0.140077 2.144096 -0.069703
v 1.117712 1.233163 0.446267
v 0.130297 2.144096 0.042290
v 0.404664 1.185315 1.070154
v 0.044190 2.144096 0.114565
v -0.895821 1.233163 0.564035
v -0.568919 1.503316 0.520759
v -0.656743 1.233163 0.839607
v -0.571677 1.233163 0.515223
v 1.030332 1.350574 -0.037389
v 1.181484 1.233163 -0.243720
v 1.159539 1.233163 -0.006289
v 1.028639 1.233163 -0.036952
v -0.285269 1.333338 -1.007471
v -0.271584 1.294854 -1.068421
v -0.368973 1.212653 -1.066458
v -0.268763 1.282663 -1.080849
v -0.256140 1.233163 -1.136618
v -0.284877 1.233163 -1.006032
v 0.669810 1.722864 -0.681174
v 0.087290 2.466165 -0.145259
v 0.927079 1.705778 -0.016754
v 0.116329 2.466165 -0.060917
v 0.580767 1.683652 0.601794
v 0.077225 2.466165 0.019256
v -0.007117 2.466165 0.048295
v -0.730020 1.668501 0.650936
v -0.087290 2.466165 0.009190
v -1.005706 1.637659 -0.103892
v -0.116329 2.466165 -0.075152
v -0.693699 1.637659 -0.735459
v -0.077224 2.466165 -0.155324
v 0.004122 1.722864 -0.990419
v 0.007117 2.466165 -0.184364
v 0.831268 1.743366 -0.249879
v 0.576814 1.957725 -0.310822
v 0.732573 1.743366 -0.522014
v 0.577282 1.743366 -0.305936
v -0.766565 1.730821 -0.352348
v -0.937224 1.637659 -0.242514
v -0.853424 1.637659 -0.412142
v -0.765187 1.743366 -0.352190
v -0.068045 1.722484 0.740475
v -0.095520 1.691947 0.781729
v -0.022825 1.642998 0.807980
v -0.101146 1.682274 0.790132
v -0.126361 1.642998 0.827850
v -0.067926 1.642998 0.739297
v 0.711021 2.129334 0.149936
v 0.090023 2.737316 -0.060696
v 0.312266 2.143002 0.599220
v 0.040426 2.737316 -0.006662
v -0.256719 2.204904 0.588705
v -0.032851 2.737316 -0.003524
v -0.086885 2.737316 -0.053121
v -0.805741 2.143002 -0.339639
v -0.090023 2.737316 -0.126398
v -0.368060 2.143002 -0.834640
v -0.040426 2.737316 -0.180432
v 0.213943 2.119083 -0.866248
v 0.032851 2.737316 -0.183570
v 0.674037 2.193204 -0.452359
v 0.086885 2.737316 -0.133973
v 0.369673 2.143002 0.541870
v 0.439951 2.319257 0.427901
v 0.527742 2.143002 0.363914
v 0.436603 2.143002 0.430154
v -0.094764 2.219604 -0.759092
v -0.241020 2.143002 -0.839437
v -0.085564 2.143002 -0.845308
v -0.094338 2.143002 -0.758033
v -0.611144 2.208359 0.173993
v -0.651731 2.183251 0.170291
v -0.642230 2.143002 0.233129
v -0.660010 2.175297 0.169517
v -0.697155 2.143002 0.166064
v -0.610246 2.143002 0.173618
v 0.533399 2.539608 0.072109
v -0.000000 3.210872 -0.139264
v 0.234180 2.539608 0.408975
v -0.192523 2.446755 0.401089
v -0.604255 2.481345 -0.295109
v -0.276022 2.539608 -0.666328
v 0.158042 2.578540 -0.682720
v 0.505485 2.504722 -0.379642
v 0.430204 2.539608 0.191297
v 0.438341 2.577207 0.117134
v 0.499446 2.539608 0.097465
v 0.435829 2.539608 0.118823
v -0.071067 2.597054 -0.609672
v -0.180749 2.539608 -0.669926
v -0.064168 2.539608 -0.674329
v -0.070747 2.539608 -0.608878
v -0.458319 2.588621 0.090082
v -0.488756 2.569792 0.087306
v -0.481632 2.539608 0.134430
v -0.494965 2.563827 0.086725
v -0.522822 2.539608 0.084136
v -0.457646 2.539608 0.089801
vn 0.3827 -0.0000 -0.9239
vn 0.9239 -0.0000 -0.3827
vn 0.9239 -0.0000 0.3827
vn 0.3827 -0.0000 0.9239
vn -0.3827 -0.0000 0.9239
vn -0.9239 -0.0000 0.3827
vn -0.0000 1.0000 -0.0000
vn -0.9239 -0.0000 -0.3827
vn -0.3827 -0.0000 -0.9239
vn -0.0000 -1.0000 -0.0000
vn 0.2255 0.7161 -0.6606
vn 0.6806 0.7016 -0.2112
vn 0.6722 0.6961 0.2521
vn 0.3614 0.7409 0.5661
vn -0.2755 0.7504 0.6008
vn -0.6082 0.7492 0.2623
vn -0.6511 0.6979 -0.2983
vn -0.3219 0.6872 -0.6512
vn 0.0297 -0.9987 0.0408
vn -0.0006 -1.0000 0.0063
vn 0.9750 0.0151 -0.2215
vn -0.5884 -0.0218 -0.8083
vn -0.9877 -0.0094 -0.1561
vn 0.2471 -0.0069 0.9690
vn -0.1428 -0.0094 0.9897
vn 0.9655 -0.0069 -0.2602
vn 0.2226 0.7142 0.6636
vn -0.3903 0.7019 0.5958
vn -0.6793 0.6964 0.2314
vn -0.6353 0.7387 -0.2254
vn -0.2053 0.7529 -0.6253
vn 0.3723 0.7401 -0.5600
vn 0.6499 0.7109 -0.2688
vn 0.6223 0.7127 0.3237
vn -0.0168 -0.9998 0.0042
vn 0.0043 -1.0000 -0.0038
vn -0.6122 0.0151 0.7906
vn 0.9679 -0.0218 0.2503
vn 0.8619 -0.0094 -0.5070
vn -0.8065 -0.0069 -0.5912
vn -0.5186 -0.0094 -0.8550
vn -0.5803 -0.0069 0.8144
vn -0.5419 0.7119 0.4467
vn -0.6916 0.7183 -0.0756
vn -0.4355 0.7021 -0.5633
vn -0.0414 0.7387 -0.6728
vn 0.5099 0.7481 -0.4247
vn 0.6621 0.7481 0.0449
vn 0.4356 0.7133 0.5491
vn -0.0028 0.7088 0.7054
vn -0.0219 -0.9996 -0.0158
vn 0.0075 -1.0000 0.0023
vn -0.9672 0.0151 -0.2536
vn 0.1489 -0.0218 0.9886
vn 0.8041 -0.0094 0.5944
vn 0.2281 -0.0069 -0.9736
vn 0.5850 -0.0094 -0.8110
vn -0.9766 -0.0069 -0.2149
vn 0.6566 0.7169 -0.2344
vn 0.6285 0.6850 0.3684
vn 0.2044 0.6635 0.7197
vn -0.1865 0.6967 0.6927
vn -0.6685 0.7115 0.2166
vn -0.6426 0.6976 -0.3170
vn -0.3112 0.6946 -0.6486
vn 0.3018 0.7010 -0.6462
vn 0.0540 -0.9985 -0.0040
vn 0.0215 -0.9984 -0.0523
vn 0.8119 0.0151 0.5835
vn 0.2155 -0.0218 -0.9763
vn 0.5675 -0.0727 0.8202
vn 0.6067 -0.0567 -0.7929
vn -0.8359 -0.0094 0.5489
vn 0.8346 -0.0069 0.5508
vn 0.5045 0.7493 0.4290
vn 0.0624 0.7283 0.6824
vn -0.5196 0.7175 0.4640
vn -0.6618 0.7387 0.1282
vn -0.4930 0.7520 -0.4375
vn -0.0077 0.7447 -0.6673
vn 0.3923 0.7353 -0.5527
vn 0.6911 0.7222 0.0272
vn 0.0220 -0.9996 -0.0149
vn -0.0205 -0.9986 0.0490
vn 0.5879 -0.0008 0.8089
vn 0.8578 -0.0097 0.5139
vn 0.4852 -0.0094 -0.8743
vn -0.9950 -0.0069 -0.1000
vn -0.8808 -0.0094 -0.4734
vn -0.0866 -0.0069 0.9962
vn 0.5835 0.6240 0.5197
vn -0.1441 0.5953 0.7905
vn -0.4539 0.5953 0.6630
vn -0.7716 0.6300 0.0874
vn -0.6323 0.6223 -0.4614
vn -0.0871 0.6224 -0.7778
vn 0.5925 0.6051 -0.5318
vn 0.7938 0.6007 -0.0954
vn 0.0276 -0.9981 -0.0552
vn 0.0297 -0.9995 -0.0056
vn 0.3182 0.0213 0.9478
vn 0.9950 -0.0630 0.0772
vt 1.000000 0.500000
vt 0.000000 0.500000
vt 0.750000 0.490000
vt 1.000000 1.000000
vt 0.250000 0.490000
vt 0.000000 1.000000
vt 0.875000 0.500000
vt 0.919706 0.419706
vt 0.875000 1.000000
vt 0.419706 0.419706
vt 0.750000 0.500000
vt 0.990000 0.250000
vt 0.750000 1.000000
vt 0.490000 0.250000
vt 0.625000 0.500000
vt 0.919706 0.080294
vt 0.625000 1.000000
vt 0.419706 0.080294
vt 0.500000 0.500000
vt 0.750000 0.010000
vt 0.500000 1.000000
vt 0.250000 0.010000
vt 0.375000 0.500000
vt 0.580294 0.080294
vt 0.375000 1.000000
vt 0.080294 0.080294
vt 0.250000 0.500000
vt 0.510000 0.250000
vt 0.010000 0.250000
vt 0.250000 1.000000
vt 0.125000 0.500000
vt 0.580294 0.419706
vt 0.080294 0.419706
vt 0.125000 1.000000
vt 1.000000 0.500000
vt 0.000000 0.500000
vt 0.750000 0.490000
vt 1.000000 1.000000
vt 0.250000 0.490000
vt 0.000000 1.000000
vt 0.875000 0.500000
vt 0.919706 0.419706
vt 0.875000 1.000000
vt 0.419706 0.419706
vt 0.750000 0.500000
vt 0.990000 0.250000
vt 0.750000 1.000000
vt 0.490000 0.250000
vt 0.625000 1.000000
vt 0.419706 0.080294
vt 0.500000 0.500000
vt 0.750000 0.010000
vt 0.500000 1.000000
vt 0.250000 0.010000
vt 0.375000 0.500000
vt 0.580294 0.080294
vt 0.375000 1.000000
vt 0.080294 0.080294
vt 0.250000 0.500000
vt 0.510000 0.250000
vt 0.010000 0.250000
vt 0.250000 1.000000
vt 0.125000 0.500000
vt 0.580294 0.419706
vt 0.080294 0.419706
vt 0.125000 1.000000
vt 0.920377 0.500000
vt 0.858100 0.445224
vt 0.429173 0.905071
vt 0.946593 0.648391
vt 0.506318 0.000000
vt 0.506318 1.000000
vt 0.969898 0.500000
vt 0.790868 0.473072
vt 0.433133 0.096466
vt 0.804657 0.407984
vt 0.430303 0.000000
vt 0.430304 1.000000
vt 0.318939 0.564432
vt 0.477982 0.000000
vt 0.477982 1.000000
vt 0.347564 0.500000
vt 0.564866 0.117543
vt 0.446410 0.073975
vt 0.313991 0.500000
vt 0.545986 0.163123
vt 0.445822 0.961070
vt 0.570970 0.169354
vt 0.444954 0.000000
vt 0.444954 1.000000
vt 0.630259 0.554984
vt 0.473133 0.000000
vt 0.473133 1.000000
vt 0.625000 0.533861
vt 0.462714 0.981765
vt 0.639486 0.500000
vt 0.927852 0.099961
vt 0.445540 0.029792
vt 0.623871 0.527507
vt 0.459368 0.978028
vt 0.620140 0.500000
vt 0.913108 0.077561
vt 0.445817 0.961282
vt 0.903820 0.104990
vt 0.444954 0.000000
vt 0.444954 1.000000
vt 1.000000 0.500000
vt 0.000000 0.500000
vt 0.750000 0.490000
vt 1.000000 1.000000
vt 0.250000 0.490000
vt 0.000000 1.000000
vt 0.875000 0.500000
vt 0.919706 0.419706
vt 0.875000 1.000000
vt 0.419706 0.419706
vt 0.750000 0.500000
vt 0.990000 0.250000
vt 0.750000 1.000000
vt 0.490000 0.250000
vt 0.625000 1.000000
vt 0.419706 0.080294
vt 0.500000 0.500000
vt 0.750000 0.010000
vt 0.500000 1.000000
vt 0.250000 0.010000
vt 0.375000 0.500000
vt 0.580294 0.080294
vt 0.375000 1.000000
vt 0.080294 0.080294
vt 0.250000 0.500000
vt 0.510000 0.250000
vt 0.010000 0.250000
vt 0.250000 1.000000
vt 0.125000 0.500000
vt 0.580294 0.419706
vt 0.080294 0.419706
vt 0.125000 1.000000
vt 0.920377 0.500000
vt 0.858100 0.445224
vt 0.429173 0.905071
vt 0.946593 0.648391
vt 0.506318 0.000000
vt 0.506318 1.000000
vt 0.969898 0.500000
vt 0.790868 0.473072
vt 0.433133 0.096466
vt 0.804657 0.407984
vt 0.430303 0.000000
vt 0.430304 1.000000
vt 0.318939 0.564432
vt 0.477982 0.000000
vt 0.477982 1.000000
vt 0.347564 0.500000
vt 0.564866 0.117543
vt 0.446410 0.073975
vt 0.313991 0.500000
vt 0.545986 0.163123
vt 0.445822 0.961070
vt 0.570970 0.169354
vt 0.444954 0.000000
vt 0.444954 1.000000
vt 0.630259 0.554984
vt 0.473133 0.000000
vt 0.473133 1.000000
vt 0.625000 0.533861
vt 0.462714 0.981765
vt 0.639486 0.500000
vt 0.927852 0.099961
vt 0.445540 0.029792
vt 0.623871 0.527507
vt 0.459368 0.978028
vt 0.620140 0.500000
vt 0.913108 0.077561
vt 0.445817 0.961282
vt 0.903820 0.104990
vt 0.444954 0.000000
vt 0.444954 1.000000
vt 1.000000 0.500000
vt 0.000000 0.500000
vt 0.750000 0.490000
vt 1.000000 1.000000
vt 0.250000 0.490000
vt 0.000000 1.000000
vt 0.875000 0.500000
vt 0.919706 0.419706
vt 0.875000 1.000000
vt 0.419706 0.419706
vt 0.750000 0.500000
vt 0.990000 0.250000
vt 0.750000 1.000000
vt 0.490000 0.250000
vt 0.625000 1.000000
vt 0.419706 0.080294
vt 0.500000 0.500000
vt 0.750000 0.010000
vt 0.500000 1.000000
vt 0.250000 0.010000
vt 0.375000 0.500000
vt 0.580294 0.080294
vt 0.375000 1.000000
vt 0.080294 0.080294
vt 0.250000 0.500000
vt 0.510000 0.250000
vt 0.010000 0.250000
vt 0.250000 1.000000
vt 0.125000 0.500000
vt 0.580294 0.419706
vt 0.080294 0.419706
vt 0.125000 1.000000
vt 0.920377 0.500000
vt 0.858100 0.445224
vt 0.429173 0.905071
vt 0.946593 0.648391
vt 0.506318 0.000000
vt 0.506318 1.000000
vt 0.969898 0.500000
vt 0.790868 0.473072
vt 0.433133 0.096466
vt 0.804657 0.407984
vt 0.430303 0.000000
vt 0.430304 1.000000
vt 0.318939 0.564432
vt 0.477982 0.000000
vt 0.477982 1.000000
vt 0.347564 0.500000
vt 0.564866 0.117543
vt 0.446410 0.073975
vt 0.313991 0.500000
vt 0.545986 0.163123
vt 0.445822 0.961070
vt 0.570970 0.169354
vt 0.444954 0.000000
vt 0.444954 1.000000
vt 0.630259 0.554984
vt 0.473133 0.000000
vt 0.473133 1.000000
vt 0.625000 0.533861
vt 0.462714 0.981765
vt 0.639486 0.500000
vt 0.927852 0.099961
vt 0.445540 0.029792
vt 0.623871 0.527507
vt 0.459368 0.978028
vt 0.620140 0.500000
vt 0.913108 0.077561
vt 0.445817 0.961282
vt 0.903820 0.104990
vt 0.444954 0.000000
vt 0.444954 1.000000
vt 1.000000 0.500000
vt 0.000000 0.500000
vt 0.750000 0.490000
vt 1.000000 1.000000
vt 0.250000 0.490000
vt 0.000000 1.000000
vt 0.875000 0.500000
vt 0.919706 0.419706
vt 0.875000 1.000000
vt 0.419706 0.419706
vt 0.750000 0.500000
vt 0.990000 0.250000
vt 0.750000 1.000000
vt 0.490000 0.250000
vt 0.625000 1.000000
vt 0.419706 0.080294
vt 0.500000 0.500000
vt 0.750000 0.010000
vt 0.500000 1.000000
vt 0.250000 0.010000
vt 0.375000 0.500000
vt 0.580294 0.080294
vt 0.375000 1.000000
vt 0.080294 0.080294
vt 0.250000 0.500000
vt 0.510000 0.250000
vt 0.010000 0.250000
vt 0.250000 1.000000
vt 0.125000 0.500000
vt 0.580294 0.419706
vt 0.080294 0.419706
vt 0.125000 1.000000
vt 0.920377 0.500000
vt 0.858100 0.445224
vt 0.429173 0.905071
vt 0.946593 0.648391
vt 0.506318 0.000000
vt 0.506318 1.000000
vt 0.969898 0.500000
vt 0.790868 0.473072
vt 0.433133 0.096466
vt 0.804657 0.407984
vt 0.430303 0.000000
vt 0.430304 1.000000
vt 0.318939 0.564432
vt 0.477982 0.000000
vt 0.477982 1.000000
vt 0.347564 0.500000
vt 0.564866 0.117543
vt 0.446410 0.073975
vt 0.313991 0.500000
vt 0.545986 0.163123
vt 0.445822 0.961070
vt 0.570970 0.169354
vt 0.444954 0.000000
vt 0.444954 1.000000
vt 0.630259 0.554984
vt 0.473133 0.000000
vt 0.473133 1.000000
vt 0.625000 0.533861
vt 0.462714 0.981765
vt 0.639486 0.500000
vt 0.927852 0.099961
vt 0.445540 0.029792
vt 0.623871 0.527507
vt 0.459368 0.978028
vt 0.620140 0.500000
vt 0.913108 0.077561
vt 0.445817 0.961282
vt 0.903820 0.104990
vt 0.444954 0.000000
vt 0.444954 1.000000
vt 1.000000 0.500000
vt 0.000000 0.500000
vt 0.750000 0.490000
vt 1.000000 1.000000
vt 0.250000 0.490000
vt 0.000000 1.000000
vt 0.875000 0.500000
vt 0.919706 0.419706
vt 0.875000 1.000000
vt 0.419706 0.419706
vt 0.750000 0.500000
vt 0.990000 0.250000
vt 0.750000 1.000000
vt 0.490000 0.250000
vt 0.625000 1.000000
vt 0.419706 0.080294
vt 0.500000 0.500000
vt 0.750000 0.010000
vt 0.500000 1.000000
vt 0.250000 0.010000
vt 0.375000 0.500000
vt 0.580294 0.080294
vt 0.375000 1.000000
vt 0.080294 0.080294
vt 0.250000 0.500000
vt 0.510000 0.250000
vt 0.010000 0.250000
vt 0.250000 1.000000
vt 0.125000 0.500000
vt 0.580294 0.419706
vt 0.080294 0.419706
vt 0.125000 1.000000
vt 0.920377 0.500000
vt 0.858100 0.445224
vt 0.429173 0.905071
vt 0.946593 0.648391
vt 0.506318 0.000000
vt 0.506318 1.000000
vt 0.969898 0.500000
vt 0.790868 0.473072
vt 0.433133 0.096466
vt 0.804657 0.407984
vt 0.430303 0.000000
vt 0.430304 1.000000
vt 0.318939 0.564432
vt 0.477982 0.000000
vt 0.477982 1.000000
vt 0.347564 0.500000
vt 0.564866 0.117543
vt 0.446410 0.073975
vt 0.313991 0.500000
vt 0.545986 0.163123
vt 0.445822 0.961070
vt 0.570970 0.169354
vt 0.444954 0.000000
vt 0.444954 1.000000
vt 0.630259 0.554984
vt 0.473133 0.000000
vt 0.473133 1.000000
vt 0.625000 0.533861
vt 0.462714 0.981765
vt 0.639486 0.500000
vt 0.927852 0.099961
vt 0.445540 0.029792
vt 0.623871 0.527507
vt 0.459368 0.978028
vt 0.620140 0.500000
vt 0.913108 0.077561
vt 0.445817 0.961282
vt 0.903820 0.104990
vt 0.444954 0.000000
vt 0.444954 1.000000
vt 1.000000 0.500000
vt 0.000000 0.500000
vt 0.750000 0.490000
vt 0.875000 1.000000
vt 0.750000 1.000000
vt 0.625000 1.000000
vt 0.500000 1.000000
vt 0.375000 1.000000
vt 0.250000 1.000000
vt 0.125000 1.000000
vt 0.000000 1.000000
vt 0.875000 0.500000
vt 0.919706 0.419706
vt 0.750000 0.500000
vt 0.990000 0.250000
vt 0.500000 0.500000
vt 0.750000 0.010000
vt 0.375000 0.500000
vt 0.580294 0.080294
vt 0.250000 0.500000
vt 0.510000 0.250000
vt 0.125000 0.500000
vt 0.580294 0.419706
vt 0.920377 0.500000
vt 0.858100 0.445224
vt 0.429173 0.905071
vt 0.946593 0.648391
vt 0.506318 0.000000
vt 0.506318 1.000000
vt 0.969898 0.500000
vt 0.790868 0.473072
vt 0.433133 0.096466
vt 0.804657 0.407984
vt 0.430303 0.000000
vt 0.430304 1.000000
vt 0.318939 0.564432
vt 0.477982 0.000000
vt 0.477982 1.000000
vt 0.347564 0.500000
vt 0.564866 0.117543
vt 0.446410 0.073975
vt 0.313991 0.500000
vt 0.545986 0.163123
vt 0.445822 0.961070
vt 0.570970 0.169354
vt 0.444954 0.000000
vt 0.444954 1.000000
vt 0.630259 0.554984
vt 0.473133 0.000000
vt 0.473133 1.000000
vt 0.625000 0.533861
vt 0.462714 0.981765
vt 0.639486 0.500000
vt 0.927852 0.099961
vt 0.445540 0.029792
vt 0.623871 0.527507
vt 0.459368 0.978028
vt 0.620140 0.500000
vt 0.913108 0.077561
vt 0.445817 0.961282
vt 0.903820 0.104990
vt 0.444954 0.000000
vt 0.444954 1.000000
s 0
f 1/1/1 2/4/1 4/9/1 3/7/1
f 3/7/2 4/9/2 6/13/2 5/11/2
f 5/11/3 6/13/3 8/17/3 7/15/3
f 7/15/4 8/17/4 10/21/4 9/19/4
f 9/19/5 10/21/5 12/25/5 11/23/5
f 11/23/6 12/25/6 14/30/6 13/27/6
f 4/10/7 2/5/7 16/33/7 14/29/7 12/26/7 10/22/7 8/18/7 6/14/7
f 13/27/8 14/30/8 16/34/8 15/31/8
f 15/31/9 16/34/9 2/6/9 1/2/9
f 1/3/10 3/8/10 5/12/10 7/16/10 9/20/10 11/24/10 13/28/10 15/32/10
f 33/70/11 34/73/11 17/35/11 18/38/11 20/43/11 19/41/11 32/67/11
f 19/41/12 20/43/12 22/47/12 21/45/12
f 42/96/13 21/45/13 22/47/13 23/49/13 41/94/13 40/91/13
f 23/49/14 25/53/14 24/51/14 44/101/14 43/99/14 41/94/14
f 24/51/15 25/53/15 27/57/15 26/55/15
f 37/82/16 26/55/16 27/57/16 29/62/16 28/59/16 38/85/16 36/79/16
f 29/61/7 27/58/7 25/54/7 23/50/7 22/48/7 20/44/7 18/39/7 31/65/7
f 28/59/17 29/62/17 31/66/17 30/63/17
f 30/63/18 31/66/18 18/40/18 17/36/18
f 38/86/19 28/60/19 30/64/19 17/37/19 24/52/19 26/56/19 37/83/19 39/88/19
f 35/76/20 32/68/20 19/42/20 21/46/20 42/97/20 45/104/20 44/102/20 24/52/20 17/37/20 34/74/20
f 33/71/21 35/77/21 34/75/21
f 33/72/22 32/69/22 35/78/22
f 37/84/23 36/80/23 39/89/23
f 39/90/24 36/81/24 38/87/24
f 42/98/25 40/92/25 45/105/25
f 45/106/26 40/93/26 41/95/26 43/100/26 44/103/26
f 62/142/27 63/145/27 46/107/27 47/110/27 49/115/27 48/113/27 61/139/27
f 48/113/28 49/115/28 51/119/28 50/117/28
f 71/168/29 50/117/29 51/119/29 52/121/29 70/166/29 69/163/29
f 52/121/30 54/125/30 53/123/30 73/173/30 72/171/30 70/166/30
f 53/123/31 54/125/31 56/129/31 55/127/31
f 66/154/32 55/127/32 56/129/32 58/134/32 57/131/32 67/157/32 65/151/32
f 58/133/7 56/130/7 54/126/7 52/122/7 51/120/7 49/116/7 47/111/7 60/137/7
f 57/131/33 58/134/33 60/138/33 59/135/33
f 59/135/34 60/138/34 47/112/34 46/108/34
f 67/158/35 57/132/35 59/136/35 46/109/35 53/124/35 55/128/35 66/155/35 68/160/35
f 64/148/36 61/140/36 48/114/36 50/118/36 71/169/36 74/176/36 73/174/36 53/124/36 46/109/36 63/146/36
f 62/143/37 64/149/37 63/147/37
f 62/144/38 61/141/38 64/150/38
f 66/156/39 65/152/39 68/161/39
f 68/162/40 65/153/40 67/159/40
f 71/170/41 69/164/41 74/177/41
f 74/178/42 69/165/42 70/167/42 72/172/42 73/175/42
f 91/214/43 92/217/43 75/179/43 76/182/43 78/187/43 77/185/43 90/211/43
f 77/185/44 78/187/44 80/191/44 79/189/44
f 100/240/45 79/189/45 80/191/45 81/193/45 99/238/45 98/235/45
f 81/193/46 83/197/46 82/195/46 102/245/46 101/243/46 99/238/46
f 82/195/47 83/197/47 85/201/47 84/199/47
f 95/226/48 84/199/48 85/201/48 87/206/48 86/203/48 96/229/48 94/223/48
f 87/205/7 85/202/7 83/198/7 81/194/7 80/192/7 78/188/7 76/183/7 89/209/7
f 86/203/49 87/206/49 89/210/49 88/207/49
f 88/207/50 89/210/50 76/184/50 75/180/50
f 96/230/51 86/204/51 88/208/51 75/181/51 82/196/51 84/200/51 95/227/51 97/232/51
f 93/220/52 90/212/52 77/186/52 79/190/52 100/241/52 103/248/52 102/246/52 82/196/52 75/181/52 92/218/52
f 91/215/53 93/221/53 92/219/53
f 91/216/54 90/213/54 93/222/54
f 95/228/55 94/224/55 97/233/55
f 97/234/56 94/225/56 96/231/56
f 100/242/57 98/236/57 103/249/57
f 103/250/58 98/237/58 99/239/58 101/244/58 102/247/58
f 120/286/59 121/289/59 104/251/59 105/254/59 107/259/59 106/257/59 119/283/59
f 106/257/60 107/259/60 109/263/60 108/261/60
f 129/312/61 108/261/61 109/263/61 110/265/61 128/310/61 127/307/61
f 110/265/62 112/269/62 111/267/62 131/317/62 130/315/62 128/310/62
f 111/267/63 112/269/63 114/273/63 113/271/63
f 124/298/64 113/271/64 114/273/64 116/278/64 115/275/64 125/301/64 123/295/64
f 116/277/7 114/274/7 112/270/7 110/266/7 109/264/7 107/260/7 105/255/7 118/281/7
f 115/275/65 116/278/65 118/282/65 117/279/65
f 117/279/66 118/282/66 105/256/66 104/252/66
f 125/302/67 115/276/67 117/280/67 104/253/67 111/268/67 113/272/67 124/299/67 126/304/67
f 122/292/68 119/284/68 106/258/68 108/262/68 129/313/68 132/320/68 131/318/68 111/268/68 104/253/68 121/290/68
f 120/287/69 122/293/69 121/291/69
f 120/288/70 119/285/70 122/294/70
f 124/300/71 123/296/71 126/305/71
f 126/306/72 123/297/72 125/303/72
f 129/314/73 127/308/73 132/321/73
f 132/322/74 127/309/74 128/311/74 130/316/74 131/319/74
f 149/358/75 150/361/75 133/323/75 134/326/75 136/331/75 135/329/75 148/355/75
f 135/329/76 136/331/76 138/335/76 137/333/76
f 158/384/77 137/333/77 138/335/77 139/337/77 157/382/77 156/379/77
f 139/337/78 141/341/78 140/339/78 160/389/78 159/387/78 157/382/78
f 140/339/79 141/341/79 143/345/79 142/343/79
f 153/370/80 142/343/80 143/345/80 145/350/80 144/347/80 154/373/80 152/367/80
f 145/349/7 143/346/7 141/342/7 139/338/7 138/336/7 136/332/7 134/327/7 147/353/7
f 144/347/81 145/350/81 147/354/81 146/351/81
f 146/351/82 147/354/82 134/328/82 133/324/82
f 154/374/83 144/348/83 146/352/83 133/325/83 140/340/83 142/344/83 153/371/83 155/376/83
f 151/364/84 148/356/84 135/330/84 137/334/84 158/385/84 161/392/84 160/390/84 140/340/84 133/325/84 150/362/84
f 149/359/85 151/365/85 150/363/85
f 149/360/86 148/357/86 151/366/86
f 153/372/87 152/368/87 155/377/87
f 155/378/88 152/369/88 154/375/88
f 158/386/89 156/380/89 161/393/89
f 161/394/90 156/381/90 157/383/90 159/388/90 160/391/90
f 171/421/91 172/424/91 162/395/91 163/398/91 164/406/91 170/418/91
f 164/406/92 163/399/92 165/408/92
f 180/447/93 165/408/93 163/400/93 179/445/93 178/442/93
f 163/401/94 166/410/94 182/452/94 181/450/94 179/445/94
f 166/410/95 163/402/95 167/412/95
f 175/433/96 167/412/96 163/403/96 168/414/96 176/436/96 174/430/96
f 168/414/97 163/404/97 169/416/97
f 169/416/98 163/405/98 162/396/98
f 176/437/99 168/415/99 169/417/99 162/397/99 166/411/99 167/413/99 175/434/99 177/439/99
f 173/427/100 170/419/100 164/407/100 165/409/100 180/448/100 183/455/100 182/453/100 166/411/100 162/397/100 172/425/100
f 171/422/101 173/428/101 172/426/101
f 171/423/102 170/420/102 173/429/102
f 175/435/87 174/431/87 177/440/87
f 177/441/88 174/432/88 176/438/88
f 180/449/89 178/443/89 183/456/89
f 183/457/90 178/444/90 179/446/90 181/451/90 182/454/90
